<?xml version="1.0" encoding="utf-8"?>
<!-- Generator: Adobe Illustrator 26.2.1, SVG Export Plug-In . SVG Version: 6.00 Build 0)  -->
<svg version="1.1" id="Layer_1" xmlns="http://www.w3.org/2000/svg" xmlns:xlink="http://www.w3.org/1999/xlink" x="0px" y="0px"
	 viewBox="0 0 131 178" style="enable-background:new 0 0 131 178;" xml:space="preserve">
<style type="text/css">
	.st0{fill:#FFFFFF;}
	.st1{fill:#333333;}
	.st2{fill:none;stroke:#333333;stroke-width:20;stroke-linecap:round;stroke-linejoin:round;stroke-miterlimit:10;}
</style>
<g>
	<path class="st0" d="M29.5,170c-10.71,0-19.43-8.72-19.43-19.43V49.43C10.07,38.72,18.78,30,29.5,30h74.14
		c10.71,0,19.43,8.72,19.43,19.43v101.14c0,10.71-8.72,19.43-19.43,19.43H29.5z"/>
	<path class="st1" d="M103.63,35c7.96,0,14.43,6.47,14.43,14.43v101.14c0,7.96-6.47,14.43-14.43,14.43H29.5
		c-7.96,0-14.43-6.47-14.43-14.43V49.43C15.07,41.47,21.54,35,29.5,35H103.63 M103.63,25H29.5C16.06,25,5.07,35.99,5.07,49.43
		v101.14C5.07,164.01,16.06,175,29.5,175h74.14c13.44,0,24.43-10.99,24.43-24.43V49.43C128.07,35.99,117.07,25,103.63,25L103.63,25z
		"/>
</g>
<g>
	<path class="st2" d="M83.2,27.21c-0.96-8.34-8.04-14.81-16.63-14.81c-8.61,0-15.7,6.5-16.64,14.86
		c-7.94,4.38-13.97,11.81-15.98,20.85c21.75,0,43.5,0,65.25,0C97.2,39.08,91.19,31.6,83.2,27.21z"/>
	<path class="st0" d="M83.2,27.21c-0.96-8.34-8.04-14.81-16.63-14.81c-8.61,0-15.7,6.5-16.64,14.86
		c-7.94,4.38-13.97,11.81-15.98,20.85c21.75,0,43.5,0,65.25,0C97.2,39.08,91.19,31.6,83.2,27.21z"/>
</g>
</svg>
