<?xml version="1.0" encoding="utf-8"?>
<!-- Generator: Adobe Illustrator 26.2.1, SVG Export Plug-In . SVG Version: 6.00 Build 0)  -->
<svg version="1.1" id="laptop_outline" xmlns="http://www.w3.org/2000/svg" xmlns:xlink="http://www.w3.org/1999/xlink" x="0px"
	 y="0px" viewBox="0 0 412 304" style="enable-background:new 0 0 412 304;" xml:space="preserve">
<style type="text/css">
	.st0{fill:none;stroke:#000000;stroke-width:3;stroke-miterlimit:10;}
	.st1{fill:none;stroke:#000000;stroke-width:3;stroke-linecap:round;stroke-linejoin:round;stroke-miterlimit:10;}
	.st2{fill:none;stroke:#FF1D25;stroke-width:3;stroke-miterlimit:10;}
	.st3{fill:none;stroke:#3FA9F5;stroke-width:3;stroke-miterlimit:10;}
	.st4{fill:none;stroke:#7AC943;stroke-width:3;stroke-miterlimit:10;}
</style>
<path class="st0" d="M15.61,244.24c-3.63-0.63-14.4-7.2,3.08-14.4c17.48-7.2,100.77-43.19,100.77-43.19s6.63-1.03,19.25,0
	s236.78,20.56,236.78,20.56s12.34-2.06,6.17,11.31c-6.36,13.78-25.71,61.69-25.71,61.69s-5.14,10.28-23.65,7.2
	C308.78,283.5,97.87,258.63,15.61,244.24z"/>
<path class="st0" d="M126.46,186.2L146.2,25.23c0,0,0-8.23,11.31-8.23c13.37,0,227.24,1.03,227.24,1.03S394,17,394,27.28
	s-11.31,179.94-11.31,179.94L126.46,186.2z"/>
<polygon class="st1" points="98.9,214.42 139,194.88 350.14,213.39 333.33,241.15 "/>
<polygon class="st1" points="126.46,248.42 154.42,230.87 245.13,241.21 224.52,260.01 "/>
<polyline class="st2" points="233.83,49.87 192.99,71.66 229.18,98.65 "/>
<polyline class="st2" points="279.51,105.54 327.05,80.17 284.92,48.74 "/>
<line class="st2" x1="240.42" y1="107.48" x2="271.31" y2="49.34"/>
<line class="st3" x1="164.71" y1="171.23" x2="345.67" y2="184.6"/>
<line class="st4" x1="178.07" y1="158.9" x2="269.58" y2="165.06"/>
<line class="st4" x1="179.1" y1="145.53" x2="303.52" y2="152.73"/>
<line class="st3" x1="170.87" y1="131.13" x2="321" y2="139.36"/>
</svg>
