<?xml version="1.0" encoding="utf-8"?>
<!-- Generator: Adobe Illustrator 26.2.1, SVG Export Plug-In . SVG Version: 6.00 Build 0)  -->
<svg version="1.1" id="Layer_1" xmlns="http://www.w3.org/2000/svg" xmlns:xlink="http://www.w3.org/1999/xlink" x="0px" y="0px"
	 viewBox="0 0 242 55" style="enable-background:new 0 0 242 55;" xml:space="preserve">
<style type="text/css">
	.st0{fill:#7AC943;}
	.st1{fill:#333333;}
	.st2{fill:#FF0000;}
	.st3{fill:#3FA9F5;}
	.st4{fill:none;stroke:#333333;stroke-width:2.2;stroke-linecap:round;stroke-linejoin:round;stroke-miterlimit:10;}
</style>
<g>
	<path class="st0" d="M10.1,9.57c-0.25,0-0.29,0.01-0.29,0.17c0.03,0.66,0.25,1.29,0.25,1.95c0,0.6-0.2,1.3-0.77,1.6
		c-0.1,0.06-0.21,0.1-0.32,0.1c-0.17,0-0.29-0.08-0.31-0.25L8.6,12.55l-0.13-1.54c-0.17-1.86-0.24-3.73-0.24-5.6
		c0-0.76,0.94-1.34,1.62-1.34c0.06,0,0.11,0.01,0.17,0.01c1.22,0.15,2.26,0.91,2.89,1.95c0.17,0.28,0.27,0.59,0.27,0.91
		c0,0.45-0.18,0.87-0.43,1.23C12.08,9.08,11.25,9.57,10.1,9.57z M9.42,6.07C9.42,6.44,10,6.44,10,7.03C10,7.4,9.77,7.59,9.67,7.7
		c-0.06,0.06,0,0.14,0.03,0.18c0.18,0.25,0.42,0.42,0.74,0.42c0.6,0,1.48-0.55,1.48-1.2c0-0.67-1.34-1.53-1.96-1.53
		C9.71,5.58,9.42,5.79,9.42,6.07z"/>
	<path class="st0" d="M22.4,13.73c-0.5-0.36-3.22-2.73-3.92-3.14c-0.21-0.13-0.2,0.06-0.2,0.27c0,0.38,0.01,0.76,0.01,1.13
		c0,0.36-0.01,0.74-0.07,1.09c-0.06,0.34-0.32,0.5-0.64,0.5c-0.52,0-0.8-0.41-0.8-0.9c0-0.29,0.1-0.56,0.2-0.83
		c0.08-0.24,0.08-0.7,0.08-0.95c0-0.9-0.11-2.87-0.36-3.71c-0.08-0.27-0.18-0.53-0.18-0.81S16.6,5.9,16.78,5.7
		c0.74-0.8,1.55-0.94,2.61-0.94c1.09,0,2.14,0.48,3,1.12c0.27,0.2,0.39,0.45,0.39,0.78c0,0.91-0.76,1.69-1.47,2.16
		c-0.22,0.14-0.98,0.56-1.29,0.8c-0.14,0.1-0.17,0.15,0,0.29c0.77,0.64,1.55,1.27,2.33,1.91c0.34,0.27,0.69,0.53,1.01,0.81
		c0.1,0.08,0.14,0.18,0.14,0.31c0,0.39-0.45,0.87-0.84,0.87C22.55,13.81,22.48,13.78,22.4,13.73z M19.02,6.14
		c-0.32,0-0.85,0.06-0.85,0.49c0,0.66,0.08,1.32,0.14,1.98c0,0.08,0.07,0.11,0.18,0.1c0.15-0.01,0.31-0.06,0.45-0.08
		c0.88-0.17,1.65-0.48,2.31-1.09c0.13-0.13,0.18-0.27,0.18-0.43c0-0.18-0.07-0.34-0.22-0.45C20.83,6.37,19.5,6.14,19.02,6.14z"/>
	<path class="st0" d="M30.02,13.01c-0.1,0-0.2,0-0.29-0.01c-0.52-0.04-1.02-0.15-1.5-0.38c-1.08-0.52-1.96-1.64-1.96-2.89
		c0-0.25,0.04-0.49,0.14-0.73c0.66-1.75,2.37-2.75,4.16-2.98C30.71,6.01,30.87,6,31.02,6c1.76,0,2.94,1.5,2.94,3.19
		c0,0.29-0.04,0.59-0.11,0.87C33.39,11.82,31.85,13.01,30.02,13.01z M31.51,8.45c-0.17,0-0.22-0.1-0.27-0.25
		c-0.17-0.6-0.1-0.87-0.8-0.88h-0.17c-1.32-0.01-2.7,1.19-2.7,2.56c0,1.43,1.62,1.96,2.82,1.96c1.2,0,2.17-0.9,2.34-2.09
		c0.03-0.22,0.06-0.43,0.06-0.66c0-0.46-0.22-0.8-0.64-0.8C31.93,8.29,31.72,8.45,31.51,8.45z"/>
	<path class="st0" d="M40.61,9.32c0.01,0.87-0.04,1.76-0.24,2.6c-0.32,1.39-1.32,2.69-2.8,2.9c-0.06,0.01-0.13,0.01-0.2,0.01
		c-0.7,0-1.34-0.46-1.34-1.21c0-0.42,0.29-1.44,0.81-1.44c0.41,0,0.67,0.56,0.67,0.91c0,0.13-0.06,0.25-0.1,0.35
		c-0.04,0.08,0,0.14,0.08,0.14c0.71,0,1.19-0.41,1.46-1.05c0.36-0.9,0.49-1.89,0.49-2.86c0-1.5-0.31-2.94-0.59-4.4
		c-0.01-0.07-0.03-0.15-0.03-0.24c0-0.38,0.25-0.6,0.63-0.6c0.53,0,1.04,0.41,1.05,0.95l0.03,1.19c0.03,0.76,0.07,1.53,0.07,2.3
		V9.32z"/>
	<path class="st0" d="M45.63,13.98c-0.41,0-0.78-0.21-0.78-0.66c0-1.08,0.17-2.16,0.17-3.24c0-0.31-0.01-0.6-0.03-0.9
		c0-0.13,0.01-0.29-0.13-0.34c-0.32-0.1-0.83-0.2-0.83-0.63c0-0.34,0.34-0.64,0.59-0.8c0.1-0.06,0.18-0.08,0.27-0.13
		C44.99,7.24,45,7.07,45,6.93V6.65c0-0.24-0.01-0.34-0.18-0.39c-0.36-0.13-0.77-0.35-0.77-0.78c0-0.36,0.28-0.8,0.45-1.11
		c0.15-0.27,0.39-0.59,0.73-0.59c0.38,0,0.66,0.42,1.18,0.42c0.49,0,0.98-0.06,1.47-0.06c0.56,0,1.13,0.01,1.69,0.06
		c0.36,0.03,0.63,0.22,0.63,0.62c0,0.38-0.28,0.66-0.66,0.67h-0.2c-0.46,0-0.92-0.03-1.39-0.03c-0.48,0-0.91,0.06-1.37,0.17
		c-0.08,0.01-0.34,0.08-0.34,0.24V7c0,0.2,0.08,0.18,0.25,0.2c1.33,0.1,2.35,0.01,3.61,0.63c0.17,0.08,0.41,0.24,0.41,0.46
		c0,0.35-0.49,0.46-0.76,0.46c-0.08,0-0.21-0.01-0.49-0.04c-0.74-0.08-1.79-0.11-2.84-0.11c-0.1,0-0.17,0.08-0.18,0.17
		c-0.03,0.14-0.03,0.31-0.04,0.45c-0.06,0.57-0.1,1.13-0.1,1.71c0,0.32,0,0.66,0.03,0.98c0.03,0.24,0.14,0.42,0.39,0.45
		c0.27,0.03,0.56,0.03,0.84,0.03c0.88,0,1.76-0.11,2.63-0.25c0.18-0.03,0.45-0.08,0.63-0.08c0.25,0,0.39,0.18,0.39,0.42
		c0,0.2-0.1,0.38-0.29,0.43C49.33,13.42,47.13,13.98,45.63,13.98z"/>
	<path class="st0" d="M59.55,6c0-0.1,0.03-0.17-0.07-0.24c-0.17-0.13-0.56-0.2-0.7-0.2c-1.3,0-2.72,1.92-3.18,2.98
		c-0.24,0.52-0.39,1.09-0.39,1.65c0,0.7,0.24,1.32,0.77,1.78c0.52,0.45,1.41,0.5,2.07,0.5c0.67,0,1.34-0.1,2.02-0.1
		c0.34,0,0.77,0.1,0.77,0.5c0,0.35-0.29,0.7-0.64,0.73l-0.63,0.03c-0.45,0.01-0.9,0.04-1.34,0.04h-0.04c-0.62,0-1.23-0.04-1.82-0.18
		C54.8,13.14,54,11.77,54,10.24c0-0.91,0.28-1.81,0.77-2.58c0.85-1.36,2.2-3.26,3.99-3.26c0.78,0,2.13,0.27,2.13,1.27
		c0,0.43-0.2,0.88-0.69,0.88C59.9,6.56,59.55,6.33,59.55,6z"/>
	<path class="st0" d="M70.71,6.74c-0.56,0.1-1.2,0.13-1.74,0.27c-0.18,0.04-0.36,0.15-0.35,0.42c0.06,1.05,0.17,2.12,0.32,3.15
		c0.06,0.36,0.13,0.87,0.24,1.19c0.04,0.14,0.52,0.13,0.52,0.52c0,0.38-0.41,0.99-0.8,0.99c-0.21,0-0.38-0.14-0.52-0.27
		c-0.43-0.43-0.56-0.91-0.63-1.5c-0.1-0.78-0.2-1.58-0.27-2.38c-0.03-0.45-0.03-0.91-0.07-1.36c-0.03-0.22-0.18-0.48-0.5-0.46
		c-0.9,0.06-1.74,0.38-2.61,0.62c-0.07,0.01-0.14,0.03-0.22,0.03c-0.55,0-1.25-0.62-1.25-1.18c0-0.29,0.21-0.39,0.46-0.42
		c0.56-0.07,1.13-0.08,1.7-0.14c0.94-0.08,1.86-0.2,2.77-0.34c1.39-0.2,2.75-0.31,4.06-0.77c0.04-0.01,0.1-0.03,0.14-0.03
		c0.38,0,0.74,0.48,0.74,0.83c0,0.15-0.07,0.25-0.21,0.32C71.98,6.5,71.28,6.64,70.71,6.74z"/>
</g>
<g>
	<path class="st1" d="M4.2,36.47c0-1.75,0.31-3.37,0.92-4.88c0.61-1.51,1.46-2.82,2.53-3.93c1.08-1.11,2.35-1.98,3.82-2.62
		c1.47-0.63,3.07-0.95,4.79-0.95c1.38,0.02,2.79,0.24,4.22,0.65s2.64,0.95,3.64,1.63c0.43,0.36,0.48,0.75,0.14,1.16l-0.31,0.44
		c-0.34,0.48-0.73,0.54-1.16,0.2c-0.95-0.59-2-1.05-3.13-1.38c-1.13-0.33-2.24-0.49-3.33-0.49c-1.41,0-2.7,0.25-3.88,0.76
		c-1.18,0.51-2.2,1.21-3.06,2.11c-0.86,0.9-1.54,1.96-2.02,3.2c-0.49,1.24-0.73,2.58-0.73,4.03c0,1.47,0.24,2.83,0.71,4.08
		c0.48,1.25,1.14,2.32,1.99,3.23c0.85,0.91,1.85,1.62,3.01,2.12c1.16,0.51,2.41,0.77,3.77,0.77c0.86,0,1.68-0.11,2.46-0.34
		c0.78-0.23,1.5-0.51,2.16-0.85c0.66-0.34,1.24-0.71,1.73-1.12s0.9-0.8,1.19-1.19v-4.01h-3.26c-0.54,0-0.82-0.28-0.82-0.85v-0.41
		c0-0.57,0.27-0.85,0.82-0.85h4.66c0.54,0,0.82,0.28,0.82,0.85v9.72c0,0.57-0.27,0.85-0.82,0.85H24.6c-0.57,0-0.85-0.25-0.85-0.75
		v-1.22c0-0.16,0-0.32,0-0.48c0-0.16,0.01-0.29,0.03-0.41h-0.07c-0.29,0.36-0.7,0.74-1.21,1.12c-0.51,0.39-1.1,0.74-1.77,1.05
		c-0.67,0.32-1.41,0.58-2.23,0.78c-0.82,0.2-1.68,0.31-2.58,0.31c-1.68,0-3.23-0.31-4.66-0.94c-1.43-0.62-2.66-1.49-3.71-2.6
		c-1.04-1.11-1.86-2.42-2.47-3.93S4.2,38.22,4.2,36.47z"/>
</g>
<g>
	<path class="st2" d="M174.5,50.97h-11.21c-1.95,0-3.54-1.59-3.54-3.54v-5.9c0-1.95,1.59-3.54,3.54-3.54h7.02
		c0.94,0,1.77-0.77,1.77-1.77c0-0.24-0.06-0.53-0.18-0.77c-3.78-5.61-3.83-5.72-3.83-5.72c-0.47-0.71-1.18-1.18-2.07-1.18h-13.92
		c-1.3,0-2.36,1.06-2.36,2.36v3.54c0,1.95,1.59,3.54,3.54,3.54c0,0,3.54,1.59,3.54,3.54v5.9c0,1.95-1.59,3.54-3.54,3.54h-4.72
		c-1.95,0-3.54-1.59-3.54-3.54V7.3c0-1.95,1.59-3.54,3.54-3.54h6.25c1.24,0,2.3,0.59,2.89,1.53c0,0,0.18,0.24,19.88,30.21
		c0.29,0.83,0.47,1.71,0.47,2.66v9.26C178.04,49.38,176.45,50.97,174.5,50.97z M162.58,21.23L154.91,9.6
		c-0.41-0.65-1.12-1.06-1.95-1.06h-0.88c-1.3,0-2.36,1.06-2.36,2.36v9.38c0,1.95,1.53,3.54,3.54,3.54h7.73
		c0.94,0,1.77-0.83,1.77-1.77C162.76,21.76,162.7,21.46,162.58,21.23z"/>
	<path class="st0" d="M212.97,25.06c0,1.95-1.59,3.54-3.54,3.54h-11.74c-1.95,0-3.54,1.59-3.54,3.54v15.28
		c0,1.95-1.53,3.54-3.48,3.54h-4.72c-1.95,0-3.54-1.59-3.54-3.54V7.48c0-1.95,1.59-3.54,3.54-3.54h23.48c2.01,0,3.54,1.59,3.54,3.54
		V25.06z M208.31,12.14c0-1.95-1.59-3.48-3.54-3.48h-14.1c-1.95,0-3.54,1.53-3.54,3.48v8.26c0,1.95,1.59,3.54,3.54,3.54h14.1
		c1.95,0,3.54-1.59,3.54-3.54V12.14z"/>
	<path class="st3" d="M234.74,50.97h-13.87c-1.95,0-3.54-1.59-3.54-3.54v-5.9c0-1.95,1.59-3.54,3.54-3.54h1
		c1.95,0,3.54-1.59,3.54-3.54V6.12c0-1.3,1.06-2.36,2.36-2.36c0,0,2.36,1.06,2.36,2.36v28.32c0,1.95,1.59,3.54,3.54,3.54h1.06
		c1.95,0,3.54,1.59,3.54,3.54v5.9C238.28,49.38,236.69,50.97,234.74,50.97z"/>
</g>
<path class="st4" d="M50.74,33.61c-4.23-3.15-5.69-5.66-6.68-7.61l0,0l0,0l0,0c-0.99,1.95-2.45,4.47-6.68,7.61
	c-7.22,5.36-1.17,12.85,4.8,8.73c-0.39,2.56-0.97,4.42-2.32,5.22l0,0.83h4.2h4.2v-0.83c-1.35-0.8-1.93-2.67-2.32-5.22
	C51.91,46.46,57.96,38.98,50.74,33.61z"/>
<g>
	<path class="st1" d="M63.06,30.72c0-0.62,0.31-0.93,0.92-0.93h0.67c0.59,0,0.89,0.31,0.89,0.93v2.15c0,0.27-0.02,0.53-0.06,0.78
		c-0.04,0.25-0.07,0.43-0.09,0.55h0.07c0.25-0.67,0.61-1.29,1.09-1.87c0.48-0.58,1.03-1.09,1.65-1.54c0.62-0.44,1.28-0.79,1.98-1.05
		c0.7-0.26,1.41-0.39,2.13-0.39c3.28,0.02,5.19,1.58,5.73,4.66h0.07c0.3-0.67,0.68-1.28,1.17-1.85c0.48-0.57,1.03-1.06,1.65-1.48
		c0.62-0.42,1.27-0.75,1.96-0.98c0.69-0.23,1.38-0.35,2.07-0.35c2.12,0,3.68,0.59,4.68,1.76c1,1.17,1.5,2.99,1.5,5.46v10.92
		c0,0.62-0.31,0.92-0.93,0.92h-0.67c-0.62,0-0.92-0.31-0.92-0.92V37.19c0-1.92-0.31-3.33-0.94-4.22c-0.63-0.89-1.65-1.33-3.05-1.33
		c-0.86,0-1.67,0.21-2.42,0.63c-0.75,0.42-1.41,0.98-1.98,1.68c-0.57,0.7-1.02,1.52-1.35,2.46c-0.33,0.94-0.5,1.94-0.5,3v8.07
		c0,0.62-0.3,0.92-0.89,0.92h-0.7c-0.62,0-0.93-0.31-0.93-0.92V37.19c0-1.95-0.31-3.36-0.92-4.24c-0.62-0.88-1.62-1.31-3-1.31
		c-0.86,0-1.68,0.21-2.44,0.63c-0.77,0.42-1.44,0.98-2.02,1.68c-0.58,0.7-1.04,1.53-1.39,2.48c-0.35,0.95-0.52,1.94-0.52,2.98v8.07
		c0,0.62-0.3,0.92-0.89,0.92h-0.7c-0.62,0-0.92-0.31-0.92-0.92V30.72z"/>
	<path class="st1" d="M97.21,39.12c0-1.43,0.22-2.74,0.67-3.94s1.07-2.23,1.89-3.09c0.81-0.86,1.78-1.54,2.9-2.02
		c1.12-0.48,2.36-0.72,3.72-0.72c1.18,0,2.26,0.2,3.22,0.61s1.78,1,2.46,1.78c0.68,0.78,1.2,1.71,1.55,2.81
		c0.36,1.1,0.54,2.33,0.54,3.68c0,0.27-0.09,0.49-0.28,0.67s-0.41,0.26-0.68,0.26H99.8c0.02,1.1,0.22,2.11,0.57,3.02
		c0.36,0.91,0.86,1.69,1.5,2.34c0.64,0.65,1.4,1.15,2.28,1.51c0.88,0.36,1.83,0.53,2.87,0.53c0.84,0.03,1.69-0.12,2.55-0.43
		c0.86-0.31,1.64-0.73,2.33-1.28c0.52-0.32,0.93-0.25,1.22,0.22l0.3,0.44c0.27,0.49,0.19,0.9-0.26,1.22
		c-0.86,0.65-1.85,1.17-2.96,1.54c-1.11,0.38-2.2,0.56-3.26,0.56c-1.41,0-2.71-0.24-3.9-0.72c-1.2-0.48-2.23-1.15-3.09-2.02
		c-0.86-0.86-1.54-1.89-2.02-3.09C97.45,41.82,97.21,40.52,97.21,39.12z M111.6,37.27c-0.07-1.78-0.59-3.19-1.54-4.25
		c-0.95-1.06-2.2-1.59-3.76-1.59c-1.68,0-3.1,0.53-4.25,1.59c-1.16,1.06-1.88,2.48-2.15,4.25H111.6z"/>
	<path class="st1" d="M119.41,46.7c-0.47-0.32-0.52-0.74-0.15-1.26l0.3-0.37c0.3-0.42,0.72-0.47,1.26-0.15
		c0.69,0.54,1.47,0.96,2.33,1.26c0.86,0.3,1.73,0.44,2.59,0.44c1.13,0,2.05-0.27,2.74-0.81c0.69-0.54,1.04-1.27,1.04-2.18
		c0-0.69-0.25-1.25-0.74-1.68c-0.49-0.43-1.11-0.81-1.85-1.15c-0.74-0.33-1.54-0.65-2.39-0.96s-1.65-0.68-2.39-1.13
		c-0.74-0.44-1.36-0.99-1.85-1.63c-0.49-0.64-0.74-1.48-0.74-2.52c0-0.76,0.15-1.47,0.44-2.11c0.3-0.64,0.72-1.2,1.28-1.67
		c0.56-0.47,1.22-0.83,2-1.07c0.78-0.25,1.65-0.37,2.61-0.37c0.94,0,1.85,0.14,2.74,0.41c0.89,0.27,1.68,0.64,2.37,1.11
		c0.47,0.32,0.55,0.73,0.26,1.22l-0.26,0.41c-0.3,0.52-0.72,0.6-1.26,0.26c-0.57-0.37-1.2-0.66-1.89-0.87
		c-0.69-0.21-1.39-0.31-2.11-0.31c-1.16,0-2.06,0.26-2.7,0.78c-0.64,0.52-0.96,1.22-0.96,2.11c0,0.72,0.25,1.29,0.74,1.74
		c0.49,0.44,1.1,0.83,1.83,1.17c0.73,0.33,1.52,0.65,2.39,0.94c0.86,0.3,1.66,0.67,2.39,1.11c0.73,0.44,1.34,0.99,1.83,1.65
		c0.49,0.65,0.74,1.5,0.74,2.54c0,0.79-0.15,1.5-0.46,2.15c-0.31,0.64-0.74,1.19-1.29,1.65c-0.55,0.46-1.22,0.81-2,1.07
		c-0.78,0.26-1.62,0.39-2.53,0.39c-1.18,0-2.33-0.19-3.44-0.57C121.15,47.89,120.2,47.37,119.41,46.7z"/>
</g>
</svg>
